<svg width="70" height="70" viewBox="0 0 70 70" fill="none" xmlns="http://www.w3.org/2000/svg">
<circle cx="34.6191" cy="34.6191" r="34.6191" fill="#0E82FA"/>
<path d="M25.5108 34.7898C24.7677 34.7898 24.0891 34.6121 23.4752 34.2567C22.8613 33.8851 22.3686 33.4004 21.997 32.8027C21.6416 32.1888 21.4639 31.5022 21.4639 30.7428C21.4639 29.9997 21.6416 29.3212 21.997 28.7072C22.3686 28.0933 22.8613 27.6087 23.4752 27.2532C24.0891 26.8817 24.7677 26.6959 25.5108 26.6959C26.2701 26.6959 26.9568 26.8817 27.5707 27.2532C28.1846 27.6087 28.6693 28.0933 29.0247 28.7072C29.3963 29.3212 29.582 29.9997 29.582 30.7428C29.582 31.5022 29.3963 32.1888 29.0247 32.8027C28.6693 33.4004 28.1846 33.8851 27.5707 34.2567C26.9568 34.6121 26.2701 34.7898 25.5108 34.7898ZM25.5108 32.6088C26.0278 32.6088 26.464 32.4311 26.8194 32.0757C27.191 31.7203 27.3768 31.276 27.3768 30.7428C27.3768 30.2097 27.191 29.7654 26.8194 29.41C26.4479 29.0546 26.0117 28.8769 25.5108 28.8769C24.9939 28.8769 24.5577 29.0546 24.2022 29.41C23.8468 29.7654 23.6691 30.2097 23.6691 30.7428C23.6691 31.276 23.8468 31.7203 24.2022 32.0757C24.5577 32.4311 24.9939 32.6088 25.5108 32.6088ZM40.5047 45.3313C39.2122 45.3313 38.0167 45.0971 36.9182 44.6286C35.8357 44.16 34.8825 43.5057 34.0586 42.6657C33.2508 41.8256 32.6208 40.8401 32.1684 39.7092C31.7161 38.5783 31.4899 37.3424 31.4899 36.0015C31.4899 34.6606 31.708 33.4247 32.1442 32.2938C32.5965 31.1467 33.2266 30.1612 34.0344 29.3373C34.8583 28.4972 35.8196 27.851 36.9182 27.3986C38.0167 26.9301 39.2122 26.6959 40.5047 26.6959C41.7971 26.6959 42.9523 26.914 43.9701 27.3502C45.004 27.7864 45.8764 28.368 46.5873 29.095C47.2981 29.8058 47.807 30.5894 48.114 31.4456L45.1575 32.8269C44.8182 31.9222 44.2447 31.179 43.4369 30.5974C42.6291 29.9997 41.6517 29.7008 40.5047 29.7008C39.3738 29.7008 38.3722 29.9674 37.4998 30.5005C36.6435 31.0336 35.9731 31.7687 35.4884 32.7057C35.0199 33.6428 34.7856 34.7413 34.7856 36.0015C34.7856 37.2616 35.0199 38.3683 35.4884 39.3215C35.9731 40.2585 36.6435 40.9936 37.4998 41.5267C38.3722 42.0598 39.3738 42.3264 40.5047 42.3264C41.6517 42.3264 42.6291 42.0356 43.4369 41.454C44.2447 40.8562 44.8182 40.105 45.1575 39.2003L48.114 40.5816C47.807 41.4378 47.2981 42.2295 46.5873 42.9565C45.8764 43.6673 45.004 44.2408 43.9701 44.677C42.9523 45.1132 41.7971 45.3313 40.5047 45.3313Z" fill="white"/>
</svg>
