<svg width="70" height="70" viewBox="0 0 70 70" fill="none" xmlns="http://www.w3.org/2000/svg">
<circle cx="35.2575" cy="34.6191" r="34.6191" fill="#0E82FA"/>
<path d="M36.5556 26.1807C36.5556 23.6752 34.5174 21.637 32.0119 21.637C29.3713 21.637 27.7927 23.6167 27.7927 25.5316H30.3891C30.3891 24.9929 30.8928 24.2334 32.0119 24.2334C33.0855 24.2334 33.9592 25.1071 33.9592 26.1807C33.9592 27.2543 33.0855 28.128 32.0119 28.128H22.2753V30.7245H32.0119C34.5174 30.7245 36.5556 28.6863 36.5556 26.1807ZM39.8012 38.5138H30.0646V41.1102H39.8012C40.8748 41.1102 41.7485 41.9839 41.7485 43.0575C41.7485 44.1312 40.8748 45.0049 39.8012 45.0049C38.6821 45.0049 38.1784 44.2454 38.1784 43.7066H35.582C35.582 45.6215 37.1606 47.6013 39.8012 47.6013C42.3067 47.6013 44.3449 45.5631 44.3449 43.0575C44.3449 40.552 42.3067 38.5138 39.8012 38.5138Z" fill="white"/>
<path d="M43.0467 25.5317C40.1829 25.5317 37.8539 27.8607 37.8539 30.7246H40.4503C40.4503 29.2927 41.6148 28.1282 43.0467 28.1282C44.4787 28.1282 45.6432 29.2927 45.6432 30.7246C45.6432 32.1565 44.4787 33.321 43.0467 33.321H22.2753V35.9175H43.0467C45.9106 35.9175 48.2396 33.5885 48.2396 30.7246C48.2396 27.8607 45.9106 25.5317 43.0467 25.5317ZM22.2753 38.5139H27.4681V41.1103H22.2753V38.5139Z" fill="white"/>
</svg>
